<?xml version="1.0" encoding="utf-8"?>
<!-- Generator: Adobe Illustrator 19.0.0, SVG Export Plug-In . SVG Version: 6.00 Build 0)  -->
<svg version="1.0" xmlns="http://www.w3.org/2000/svg" xmlns:xlink="http://www.w3.org/1999/xlink" x="0px" y="0px"
	 viewBox="0 0 128 128" style="enable-background:new 0 0 128 128;" xml:space="preserve">
<style type="text/css">
	.st0{fill:#E4A102;}
	.st1{fill:url(#XMLID_41_);}
</style>
<g id="Layer_4">
</g>
<g id="Layer_5">
	<g id="XMLID_7633_">
		<g id="XMLID_4299_">
			<path id="XMLID_4302_" class="st0" d="M124.1,58.5v11.2c0,16.6-10.1,33.2-25.5,42.1c-9.8,5.6-21.7,9-34.6,9
				c-16,0-30.5-5.1-41.3-13.4C11.1,98.4,3.9,83.8,3.9,69.7V58.5h2.2c18.4,10,87.8,17,115.8,0H124.1z"/>
			<linearGradient id="XMLID_41_" gradientUnits="userSpaceOnUse" x1="24.496" y1="97.9914" x2="103.5041" y2="18.9833">
				<stop  offset="2.200000e-007" style="stop-color:#FFE844"/>
				<stop  offset="0.5" style="stop-color:#FFF3A1"/>
				<stop  offset="1" style="stop-color:#FFE844"/>
			</linearGradient>
			<path id="XMLID_4301_" class="st1" d="M124.1,58.5c0,17.3-10.1,32.6-25.5,41.9c-9.8,5.9-21.7,9.4-34.6,9.4
				c-16,0-30.5-5.3-41.3-14C11.1,86.4,3.9,73.2,3.9,58.5C3.9,30.2,30.8,7.3,64,7.3S124.1,30.2,124.1,58.5z"/>
			<path id="XMLID_4300_" class="st0" d="M113.2,77.9c1.3-4,3-9.1,3-13.4c0-28.3-21.9-48-55-48c-24.5,0-40.7,13.8-49.3,29.6
				C18.2,26.6,39.2,12.3,64,12.3c29.9,0,54.2,20.7,54.2,46.1C118.2,65.4,116.4,72,113.2,77.9z"/>
		</g>
		<g id="XMLID_4291_">
			<path id="XMLID_7665_" class="st0" d="M79.1,62.4c-2.7-1.1-3.9-2.5-4.9-3.7c-2.1-3-5.5-4.7-9.3-4.7c-3.7,0-7.1,1.7-9.2,4.6
				c-1.1,1.3-2.4,2.8-5.5,4l0,0c0,0-0.1,0-0.1,0c-1.6,0.4-3,1.1-4.2,2c-3.7,2-6,5.9-6,10.1c0,6.4,5.3,11.5,11.7,11.5
				c1.2,0,2.4-0.2,3.6-0.6l0.4-0.1c5-1.7,7.8-1.7,9.3-1.7c1.5,0,5,0.3,7.9,1.3c1.5,0.7,3.2,1.1,4.9,1.1c6.5,0,11.7-5.2,11.7-11.5
				c0-2.1-0.6-4.1-1.6-5.8C86.3,65.4,83.1,62.9,79.1,62.4z M50.8,65.5l0.2,0l0,0c0.1,0,0.1,0,0.1,0c0,0,0.1,0,0.1,0
				c3.8-1.4,5.6-3.4,6.8-4.8c0.1-0.1,0.1-0.1,0.2-0.2c1.5-2.2,4.1-3.4,6.8-3.4c2.8,0,5.3,1.3,6.9,3.5c0,0,0.1,0.1,0.1,0.1
				c1.1,1.3,2.8,3.2,6.3,4.6c0.1,0,0.2,0.1,0.4,0.1c4.1,0.5,7.1,3.8,7.1,7.6c0,4.2-3.7,7.7-8.2,7.7c-1.2,0-2.4-0.3-3.5-0.7
				c0,0-0.1,0-0.1,0c-3.1-1.1-6.8-1.4-8.5-1.4c0,0-0.1,0-0.1,0c-1.5,0-4.4,0-9.6,1.7l-0.3,0.1c-0.8,0.2-1.7,0.4-2.5,0.4
				c-4.5,0-8.2-3.4-8.2-7.7C44.6,69.4,47.1,66.4,50.8,65.5z"/>
			<path id="XMLID_7681_" class="st0" d="M95.9,44.6c-2.6-3.2-7.3-3.6-10.5-1l-1.9,1.6c-0.6,0.5-1.1,1.1-1.5,1.7
				c-2.5,2.7-2.7,7-0.4,9.8c0,0,0.1,0.1,0.1,0.1c1.3,1.5,3.1,2.5,5,2.6c0.2,0,0.5,0,0.7,0c1.7,0,3.4-0.6,4.7-1.7l1.9-1.6
				c0.5-0.5,1-1,1.4-1.5C98.1,52,98.4,47.6,95.9,44.6z M87.3,46c0.8-0.7,1.8-1,2.8-1c1.3,0,2.6,0.6,3.5,1.6c1.6,1.9,1.3,4.7-0.6,6.2
				l-1.9,1.6c-1.9,1.6-4.7,1.3-6.3-0.6c-1.6-1.9-1.3-4.7,0.6-6.2L87.3,46z"/>
			<path id="XMLID_7684_" class="st0" d="M71.4,51.2c0.6,0.1,1.2,0.2,1.8,0.2c2.3,0,4.4-1,5.9-2.7c1.3-1.1,2.2-2.5,2.6-4.3l0.6-2.7
				c0.5-2,0.1-4.2-1-5.9c-1.1-1.8-2.9-3-4.9-3.5c-3-0.7-5.9,0.4-7.8,2.6c-1.3,1.1-2.1,2.5-2.5,4.2l-0.6,2.8
				C64.5,46,67.2,50.3,71.4,51.2z M75.7,35.2c1.3,0.3,2.3,1.1,3,2.2c0.7,1.1,0.9,2.4,0.6,3.7l-0.6,2.7c-0.5,2.2-2.5,3.8-4.7,3.8
				c-0.4,0-0.7,0-1.1-0.1c-2.6-0.6-4.3-3.2-3.7-5.8l0.6-2.7C70.5,36.3,73.1,34.6,75.7,35.2z"/>
			<path id="XMLID_7687_" class="st0" d="M46.1,59.2c0.6-0.4,1.2-0.9,1.7-1.5c2.7-3.1,2.3-7.8-0.8-10.5l-1.9-1.6
				c-1.5-1.3-3.4-1.9-5.4-1.8c-1.7,0.1-3.4,0.9-4.6,2c-0.6,0.4-1.1,0.8-1.5,1.3c0,0,0,0-0.1,0.1c-2.7,3.1-2.3,7.8,0.8,10.5l1.9,1.6
				c1.4,1.2,3.1,1.8,4.8,1.8C42.9,61.2,44.7,60.5,46.1,59.2z M39.9,46.9c0.1,0,0.2,0,0.3,0c1.1,0,2.1,0.4,2.9,1.1l1.9,1.6
				c1.9,1.6,2.1,4.4,0.5,6.3c-0.8,0.9-1.8,1.4-3,1.5c-1.2,0.1-2.3-0.3-3.2-1.1c0,0,0,0,0,0l-1.9-1.6c-0.9-0.8-1.4-1.8-1.5-3
				c-0.1-1.2,0.3-2.3,1-3.2c0,0,0.1-0.1,0.1-0.1C37.7,47.5,38.7,47,39.9,46.9z"/>
			<path id="XMLID_7690_" class="st0" d="M47.4,45.3c0.8,3.6,4,6.1,7.7,6.1c0.6,0,1.2-0.1,1.8-0.2c1.6-0.4,3.1-1.2,4.2-2.5
				c2.2-1.8,3.3-4.8,2.6-7.7L63,38.2c-1-4.2-5.2-6.9-9.4-5.9c-1.7,0.4-3.1,1.3-4.2,2.6c-2.2,1.9-3.2,4.8-2.5,7.7L47.4,45.3z
				 M54.2,35.2c0.4-0.1,0.7-0.1,1.1-0.1c2.2,0,4.2,1.5,4.7,3.8l0.6,2.7c0.6,2.6-1,5.2-3.7,5.8c-0.4,0.1-0.7,0.1-1.1,0.1
				c-2.3,0-4.2-1.6-4.7-3.8L50.6,41c0,0,0,0,0,0c-0.3-1.3-0.1-2.6,0.6-3.7C51.9,36.3,52.9,35.5,54.2,35.2z"/>
		</g>
	</g>
</g>
<g id="Layer_6">
</g>
</svg>
