<?xml version="1.0" encoding="utf-8"?>
<!-- Generator: Adobe Illustrator 19.0.0, SVG Export Plug-In . SVG Version: 6.00 Build 0)  -->
<svg version="1.0" xmlns="http://www.w3.org/2000/svg" xmlns:xlink="http://www.w3.org/1999/xlink" x="0px" y="0px"
	 viewBox="0 0 128 128" style="enable-background:new 0 0 128 128;" xml:space="preserve">
<style type="text/css">
	.st0{fill:#E4A102;}
	.st1{fill:url(#XMLID_120_);}
</style>
<g id="Layer_4">
</g>
<g id="Layer_5">
	<g id="XMLID_8_">
		<g id="XMLID_2092_">
			<path id="XMLID_2146_" class="st0" d="M124.1,58.5v11.2c0,16.6-10.1,33.2-25.5,42.1c-9.8,5.6-21.7,9-34.6,9
				c-16,0-30.5-5.1-41.3-13.4C11.1,98.4,3.9,83.8,3.9,69.7V58.5h2.2c18.4,10,87.8,17,115.8,0H124.1z"/>
			<linearGradient id="XMLID_120_" gradientUnits="userSpaceOnUse" x1="24.4962" y1="97.9913" x2="103.5043" y2="18.9832">
				<stop  offset="2.200000e-007" style="stop-color:#FFE844"/>
				<stop  offset="0.5" style="stop-color:#FFF3A1"/>
				<stop  offset="1" style="stop-color:#FFE844"/>
			</linearGradient>
			<path id="XMLID_2145_" class="st1" d="M124.1,58.5c0,17.3-10.1,32.6-25.5,41.9c-9.8,5.9-21.7,9.4-34.6,9.4
				c-16,0-30.5-5.3-41.3-14C11.1,86.4,3.9,73.2,3.9,58.5C3.9,30.2,30.8,7.3,64,7.3S124.1,30.2,124.1,58.5z"/>
			<path id="XMLID_2093_" class="st0" d="M113.2,77.9c1.3-4,3-9.1,3-13.4c0-28.3-21.9-48-55-48c-24.5,0-40.7,13.8-49.3,29.6
				C18.2,26.6,39.1,12.3,64,12.3c29.9,0,54.2,20.7,54.2,46.1C118.2,65.4,116.4,72,113.2,77.9z"/>
		</g>
		<g id="XMLID_209_">
			<path id="XMLID_7644_" class="st0" d="M97.5,39.3c-0.3-0.3-0.7-0.5-1.1-0.5H40.9c-0.7,0-1.2,0.4-1.4,1L33.2,58
				c-0.2,0.5-0.1,1,0.2,1.4c0,0,0,0.1,0.1,0.1v16.1l-2.9,6.6c-0.1,0.4-0.1,0.8,0.1,1.1c0.2,0.3,0.6,0.5,1,0.5h6c0.4,0,0.8-0.2,1-0.5
				c0.2-0.3,0.2-0.7,0.1-1.1l-2.9-6.6V60h10.7v19.8c0,5.1,12.3,6.4,19.5,6.4s19.5-1.4,19.5-6.4V60h7.6c0.7,0,1.3-0.5,1.5-1.2
				l3.3-18.2C97.9,40.1,97.8,39.6,97.5,39.3z M82.5,79.8c-0.3,1.2-6.4,3.4-16.5,3.4S49.8,81,49.5,79.8V61h33V79.8z M91.9,57H36.7
				L42,41.8h52.6L91.9,57z"/>
		</g>
	</g>
</g>
<g id="Layer_6">
</g>
</svg>
