<?xml version="1.0" encoding="utf-8"?>
<!-- Generator: Adobe Illustrator 19.0.0, SVG Export Plug-In . SVG Version: 6.00 Build 0)  -->
<svg version="1.0" xmlns="http://www.w3.org/2000/svg" xmlns:xlink="http://www.w3.org/1999/xlink" x="0px" y="0px"
	 viewBox="0 0 128 128" style="enable-background:new 0 0 128 128;" xml:space="preserve">
<style type="text/css">
	.st0{fill:#E4A102;}
	.st1{fill:url(#XMLID_93_);}
</style>
<g id="Layer_4">
</g>
<g id="Layer_5">
	<g id="XMLID_7488_">
		<g id="XMLID_4307_">
			<path id="XMLID_4310_" class="st0" d="M124.1,58.5v11.2c0,16.6-10.1,33.2-25.5,42.1c-9.8,5.6-21.7,9-34.6,9
				c-16,0-30.5-5.1-41.3-13.4C11.1,98.4,3.9,83.8,3.9,69.7V58.5h2.2c18.4,10,87.8,17,115.8,0H124.1z"/>
			<linearGradient id="XMLID_93_" gradientUnits="userSpaceOnUse" x1="24.4962" y1="97.9913" x2="103.5043" y2="18.9832">
				<stop  offset="2.200000e-007" style="stop-color:#FFE844"/>
				<stop  offset="0.5" style="stop-color:#FFF3A1"/>
				<stop  offset="1" style="stop-color:#FFE844"/>
			</linearGradient>
			<path id="XMLID_4309_" class="st1" d="M124.1,58.5c0,17.3-10.1,32.6-25.5,41.9c-9.8,5.9-21.7,9.4-34.6,9.4
				c-16,0-30.5-5.3-41.3-14C11.1,86.4,3.9,73.2,3.9,58.5C3.9,30.2,30.8,7.3,64,7.3S124.1,30.2,124.1,58.5z"/>
			<path id="XMLID_4308_" class="st0" d="M113.2,77.9c1.3-4,3-9.1,3-13.4c0-28.3-21.9-48-55-48c-24.5,0-40.7,13.8-49.3,29.6
				C18.2,26.6,39.1,12.3,64,12.3c29.9,0,54.2,20.7,54.2,46.1C118.2,65.4,116.4,72,113.2,77.9z"/>
		</g>
		<g id="XMLID_7487_">
			<g id="XMLID_7485_">
				<path id="XMLID_7649_" class="st0" d="M73.4,57.5c-0.3,0.3-0.4,0.7-0.4,1.1c0.2,8.7,7.6,15.8,16.5,15.8c4.4,0,8.4-1.7,11.3-4.8
					c2.8-3,4.1-7,3.8-11.1c-0.1-0.7-0.5-1.2-1.2-1.3L89.3,38.3h1.4c0.8,0,1.5-0.7,1.5-1.5c0-0.8-0.7-1.5-1.5-1.5h-25L65.5,30
					c0-0.8-0.7-1.5-1.5-1.5c-0.8,0-1.5,0.6-1.5,1.5l-0.1,5.4H37.8c-0.8,0-1.5,0.7-1.5,1.5c0,0.8,0.7,1.5,1.5,1.5h1L24.6,57.1
					c-0.6,0.1-1.1,0.7-1.1,1.3c-0.3,4.1,1,8.1,3.8,11.1c2.9,3.1,6.9,4.8,11.3,4.8c8.9,0,16.4-7.1,16.6-15.8c0-0.4-0.2-0.8-0.4-1.1
					c-0.2-0.2-0.3-0.3-0.5-0.3L43.5,38.3h18.9l-0.8,35.6L35.7,85.1c-0.5,0.2-0.9,0.8-0.9,1.3h0v1.2h0c0,0.8,0.7,1.4,1.5,1.4h55.3
					c0.8,0,1.5-0.6,1.5-1.5v-1.1c0-0.6-0.4-1.1-0.9-1.3L66.5,73.9l-0.8-35.6h18.8L73.9,57.1C73.7,57.2,73.5,57.3,73.4,57.5z
					 M38.5,71.3c-3.6,0-6.8-1.4-9.1-3.9c-1.9-2.1-3-4.7-3-7.5h25.5C51,66.4,45.3,71.3,38.5,71.3z M51.4,57H27.5l13.7-18.1L51.4,57z
					 M84.4,85H43.6L64,76.1L84.4,85z M86.8,38.9L100.5,57H76.6L86.8,38.9z M101.6,60c-0.1,2.8-1.1,5.4-3,7.5
					c-2.3,2.5-5.5,3.9-9.1,3.9c-6.8,0-12.5-4.9-13.4-11.3H101.6z"/>
			</g>
		</g>
	</g>
</g>
<g id="Layer_6">
</g>
</svg>
