<?xml version="1.0" encoding="utf-8"?>
<!-- Generator: Adobe Illustrator 19.0.0, SVG Export Plug-In . SVG Version: 6.00 Build 0)  -->
<svg version="1.0" xmlns="http://www.w3.org/2000/svg" xmlns:xlink="http://www.w3.org/1999/xlink" x="0px" y="0px"
	 viewBox="0 0 128 128" style="enable-background:new 0 0 128 128;" xml:space="preserve">
<style type="text/css">
	.st0{fill:#E4A102;}
	.st1{fill:url(#XMLID_80_);}
	.st2{opacity:0.8;fill:#FFFFFF;}
</style>
<g id="Layer_4">
</g>
<g id="Layer_5">
	<g id="XMLID_7773_">
		<g id="XMLID_4319_">
			<path id="XMLID_4322_" class="st0" d="M124.1,58.5v11.2c0,16.6-10.1,33.2-25.5,42.1c-9.8,5.6-21.7,9-34.6,9
				c-16,0-30.5-5.1-41.3-13.4C11.1,98.4,3.9,83.8,3.9,69.7V58.5h2.2c18.4,10,87.8,17,115.8,0H124.1z"/>
			<linearGradient id="XMLID_80_" gradientUnits="userSpaceOnUse" x1="24.4962" y1="97.9913" x2="103.5043" y2="18.9832">
				<stop  offset="2.200000e-007" style="stop-color:#FFE844"/>
				<stop  offset="0.5" style="stop-color:#FFF3A1"/>
				<stop  offset="1" style="stop-color:#FFE844"/>
			</linearGradient>
			<path id="XMLID_4321_" class="st1" d="M124.1,58.5c0,17.3-10.1,32.6-25.5,41.9c-9.8,5.9-21.7,9.4-34.6,9.4
				c-16,0-30.5-5.3-41.3-14C11.1,86.4,3.9,73.2,3.9,58.5C3.9,30.2,30.8,7.3,64,7.3S124.1,30.2,124.1,58.5z"/>
			<path id="XMLID_4320_" class="st0" d="M113.2,77.9c1.3-4,3-9.1,3-13.4c0-28.3-21.9-48-55-48c-24.5,0-40.7,13.8-49.3,29.6
				C18.2,26.6,39.1,12.3,64,12.3c29.9,0,54.2,20.7,54.2,46.1C118.2,65.4,116.4,72,113.2,77.9z"/>
		</g>
		<g id="XMLID_7772_">
			<path id="XMLID_7771_" class="st2" d="M76.9,46.8c4.7-0.8,10.1,4.6,8.7,8.9C84,60.5,70.2,48.1,76.9,46.8z"/>
			<path id="XMLID_7630_" class="st0" d="M85.3,42.7c-3.5-2.4-7.7-3.1-11.8-2c-3.4,0.9-6.5,3-8.6,5.8c-2.1-2.8-5.1-4.9-8.5-5.8
				c-4-1.1-8.2-0.4-11.7,2c0,0,0,0,0,0c0,0,0,0-0.1,0c-5.4,3.2-8.4,9.5-7.8,16.2c0.5,5.4,3.9,14.8,19.2,22.6
				c2.4,1.5,5.2,2.9,8.3,4.4c0.2,0.1,0.4,0.1,0.6,0.1c0.2,0,0.4,0,0.6-0.1c0.3-0.1,0.7-0.3,1-0.5c0,0,0,0,0,0
				c20.3-9.8,25.3-20.2,25.8-27.2C92.9,51.1,89.2,45.3,85.3,42.7z M89.4,57.9c-0.5,6.2-5,15.5-23.6,24.5c-3.2-1.1-6.1-2.4-8.7-3.8
				c-12.8-7.8-16.2-15.4-16.6-20.7C40,52.1,43,47.3,46.2,45.2c0,0,0.1-0.1,0.1-0.1c1.9-1.3,4.1-1.9,6.4-1.9c1,0,2,0.1,2.9,0.4
				c3.4,0.9,6.4,3.3,8,6.4c0.3,0.5,0.8,0.8,1.3,0.8c0.6,0,1.1-0.3,1.3-0.8c1.6-3.2,4.6-5.6,8-6.5c3.2-0.8,6.5-0.3,9.3,1.6
				C86.8,47.3,89.8,52.1,89.4,57.9z"/>
		</g>
	</g>
</g>
<g id="Layer_6">
</g>
</svg>
