<?xml version="1.0" encoding="utf-8"?>
<!-- Generator: Adobe Illustrator 19.0.0, SVG Export Plug-In . SVG Version: 6.00 Build 0)  -->
<svg version="1.0" xmlns="http://www.w3.org/2000/svg" xmlns:xlink="http://www.w3.org/1999/xlink" x="0px" y="0px"
	 viewBox="0 0 128 128" style="enable-background:new 0 0 128 128;" xml:space="preserve">
<style type="text/css">
	.st0{fill:#E4A102;}
	.st1{fill:url(#XMLID_106_);}
</style>
<g id="Layer_4">
</g>
<g id="Layer_5">
	<g id="XMLID_1186_">
		<g id="XMLID_4360_">
			<path id="XMLID_4363_" class="st0" d="M124.1,58.5v11.2c0,16.6-10.1,33.2-25.5,42.1c-9.8,5.6-21.7,9-34.6,9
				c-16,0-30.5-5.1-41.3-13.4C11.1,98.4,3.9,83.8,3.9,69.7V58.5h2.2c18.4,10,87.8,17,115.8,0H124.1z"/>
			<linearGradient id="XMLID_106_" gradientUnits="userSpaceOnUse" x1="24.4961" y1="97.9915" x2="103.5043" y2="18.9833">
				<stop  offset="2.200000e-007" style="stop-color:#FFE844"/>
				<stop  offset="0.5" style="stop-color:#FFF3A1"/>
				<stop  offset="1" style="stop-color:#FFE844"/>
			</linearGradient>
			<path id="XMLID_4362_" class="st1" d="M124.1,58.5c0,17.3-10.1,32.6-25.5,41.9c-9.8,5.9-21.7,9.4-34.6,9.4
				c-16,0-30.5-5.3-41.3-14C11.1,86.4,3.9,73.2,3.9,58.5C3.9,30.2,30.8,7.3,64,7.3S124.1,30.2,124.1,58.5z"/>
			<path id="XMLID_4361_" class="st0" d="M113.2,77.9c1.3-4,3-9.1,3-13.4c0-28.3-21.9-48-55-48c-24.5,0-40.7,13.8-49.3,29.6
				C18.2,26.6,39.1,12.3,64,12.3c29.9,0,54.2,20.7,54.2,46.1C118.2,65.4,116.4,72,113.2,77.9z"/>
		</g>
		<g id="XMLID_7516_">
			<g id="XMLID_4344_">
				<path id="XMLID_7490_" class="st0" d="M81,36.5c0-0.2,0-0.4-0.1-0.6L80.3,32l0,0c-0.2-1.8-1.7-3.2-3.4-3.2H50.1
					c-1.7,0-3.2,1.4-3.4,3.3h0l-0.6,4l0,0c0,0.2,0,0.3-0.1,0.5l-0.7,13.4c-0.1,2.2,1.4,3.9,3.4,3.9h29.4c2,0,3.5-1.8,3.4-3.9
					L81,36.5z M78.3,47.1c-0.2,0.2-0.4,0.3-0.6,0.3H49.3c-0.2,0-0.4-0.1-0.6-0.3c-0.3-0.3-0.4-0.8-0.4-1.3L49,32.5
					c0-0.8,0.7-1.4,1.2-1.4h26.7c0.5,0,1.1,0.6,1.2,1.4l0.6,13.4C78.7,46.4,78.6,46.8,78.3,47.1z"/>
				<path id="XMLID_7474_" class="st0" d="M56.8,55.6H28c-1.6,0-3.1,1.3-3.7,3l-1.5,4h0c-0.2,0.4-0.3,0.9-0.3,1.3l-1.7,15.6
					c-0.3,2.5,1.3,4.6,3.5,4.6h31.9c2.2,0,4-2.1,4-4.6l0-4.2l0.1-15.6C60.4,57.5,58.8,55.6,56.8,55.6z M57.9,75.4
					c0,1.3-0.8,2.3-1.5,2.3H25.7c-0.1,0-0.3,0-0.6-0.3c-0.3-0.4-0.5-1.1-0.4-1.8L26.3,60c0.1-1.2,1-2.1,1.7-2.1h28.8
					c0.2,0,0.5,0.1,0.7,0.3c0.4,0.4,0.6,0.9,0.5,1.5L57.9,75.4z"/>
				<path id="XMLID_7473_" class="st0" d="M106.2,79.5l-1.7-15.6c0-0.3-0.1-0.7-0.2-1l-0.1-0.4l-1.5-4l0,0v0
					c-0.6-1.7-2.1-2.9-3.7-2.9H70.2c-2,0-3.5,1.9-3.5,4.2l0,3.9c0,0.1,0,0.2,0,0.3l0.1,15.6c0,2.5,1.8,4.6,4,4.6h31.9
					C105,84.2,106.5,82.1,106.2,79.5z M101.9,77.4c-0.2,0.3-0.4,0.3-0.6,0.3H70.6c-0.7,0-1.5-1-1.5-2.3L69,59.8
					c0-0.6,0.2-1.2,0.6-1.5c0.2-0.2,0.4-0.3,0.7-0.3H99c0.7,0,1.6,0.9,1.7,2.1l1.6,15.6C102.4,76.4,102.3,77,101.9,77.4z"/>
			</g>
		</g>
	</g>
</g>
<g id="Layer_6">
</g>
</svg>
