<?xml version="1.0" encoding="utf-8"?>
<!-- Generator: Adobe Illustrator 19.0.0, SVG Export Plug-In . SVG Version: 6.00 Build 0)  -->
<svg version="1.0" xmlns="http://www.w3.org/2000/svg" xmlns:xlink="http://www.w3.org/1999/xlink" x="0px" y="0px"
	 viewBox="0 0 128 128" style="enable-background:new 0 0 128 128;" xml:space="preserve">
<style type="text/css">
	.st0{fill:#E4A102;}
	.st1{fill:url(#XMLID_80_);}
	.st2{opacity:0.4;fill:#FFFFFF;}
</style>
<g id="Layer_4">
</g>
<g id="Layer_5">
	<g id="XMLID_7619_">
		<g id="XMLID_4303_">
			<path id="XMLID_4306_" class="st0" d="M124.1,58.5v11.2c0,16.6-10.1,33.2-25.5,42.1c-9.8,5.6-21.7,9-34.6,9
				c-16,0-30.5-5.1-41.3-13.4C11.1,98.4,3.9,83.8,3.9,69.7V58.5h2.2c18.4,10,87.8,17,115.8,0H124.1z"/>
			<linearGradient id="XMLID_80_" gradientUnits="userSpaceOnUse" x1="24.496" y1="97.9914" x2="103.5041" y2="18.9833">
				<stop  offset="2.200000e-007" style="stop-color:#FFE844"/>
				<stop  offset="0.5" style="stop-color:#FFF3A1"/>
				<stop  offset="1" style="stop-color:#FFE844"/>
			</linearGradient>
			<path id="XMLID_4305_" class="st1" d="M124.1,58.5c0,17.3-10.1,32.6-25.5,41.9c-9.8,5.9-21.7,9.4-34.6,9.4
				c-16,0-30.5-5.3-41.3-14C11.1,86.4,3.9,73.2,3.9,58.5C3.9,30.2,30.8,7.3,64,7.3S124.1,30.2,124.1,58.5z"/>
			<path id="XMLID_4304_" class="st0" d="M113.2,77.9c1.3-4,3-9.1,3-13.4c0-28.3-21.9-48-55-48c-24.5,0-40.7,13.8-49.3,29.6
				C18.2,26.6,39.2,12.3,64,12.3c29.9,0,54.2,20.7,54.2,46.1C118.2,65.4,116.4,72,113.2,77.9z"/>
		</g>
		<g id="XMLID_7502_">
			<polygon id="XMLID_4287_" class="st2" points="86.6,41.5 77.1,35.9 95,35.1 89.9,53.2 			"/>
			<path id="XMLID_4286_" class="st2" d="M39.5,62.6c5.2,2.9,15.3,10.9,19.2,23.6c3-0.5,3-0.5,3-0.5s-2.3-18.4-21.4-26.2
				C38.9,61.7,39.5,62.6,39.5,62.6z"/>
			<path id="XMLID_7655_" class="st0" d="M99.3,31.7c-0.3-0.4-0.8-0.6-1.3-0.6l-23.1,2.1c-0.4,0-0.8,0.2-1,0.5L49,63.1
				c-2.7-2.1-5.5-3.8-8.2-4.9c-0.2-0.1-0.3-0.1-0.5-0.1c0,0,0,0-0.1,0c-0.1,0-0.3,0-0.4,0.1c0,0-0.1,0-0.1,0c0,0-0.1,0-0.1,0
				c-0.5,0.2-2.5,1.4-6.2,7.4c-0.4,0.7-0.2,1.6,0.4,2c2,1.4,3.9,2.9,5.6,4.4L25.7,83.8c-0.6,0.5-0.7,1.5-0.2,2.1l7.7,9.3
				c0.3,0.3,0.6,0.5,1,0.5c0,0,0.1,0,0.1,0c0.4,0,0.7-0.1,1-0.4l14.4-12.1c2.4,3.4,3.6,5.8,3.6,5.9c0.3,0.5,0.8,0.9,1.4,0.9
				c0.1,0,0.2,0,0.3,0c0.2,0,4.5-0.9,7.6-2.7c0,0,0,0,0,0c0.1-0.1,0.2-0.1,0.3-0.2c0,0,0,0,0-0.1c0.1-0.1,0.1-0.2,0.2-0.3
				c0,0,0,0,0,0c0.1-0.1,0.1-0.2,0.1-0.4c0,0,0-0.1,0-0.1c0-0.1,0-0.3,0-0.4c-0.5-3.4-1.6-6.7-3.3-9.9l31.2-19.4
				c0.3-0.2,0.5-0.5,0.6-0.8l7.8-22.7C99.7,32.6,99.6,32.1,99.3,31.7z M42.7,75c1.5,1.5,2.8,3,4,4.4L35.3,90.1l-5-5.7L42.7,75z
				 M55.7,85.5c-1.4-3.1-6.3-12.4-17.2-20.3l2.3-3.7C48.9,65.3,58,74.8,60,84.8C58.3,85.1,56.7,85.4,55.7,85.5z M87.5,40.7
				c-0.4-0.5-1.1-0.5-1.6-0.1L55,67.6c-0.9-1-1.7-1.9-2.7-2.8l25-28.4l17-0.8l-4.9,17.2L58.6,72.1c-0.7-0.9-1.4-1.9-2.1-2.8l30.9-27
				C87.9,41.9,87.9,41.2,87.5,40.7z"/>
		</g>
	</g>
</g>
<g id="Layer_6">
</g>
</svg>
