<?xml version="1.0" encoding="utf-8"?>
<!-- Generator: Adobe Illustrator 19.0.0, SVG Export Plug-In . SVG Version: 6.00 Build 0)  -->
<svg version="1.0" xmlns="http://www.w3.org/2000/svg" xmlns:xlink="http://www.w3.org/1999/xlink" x="0px" y="0px"
	 viewBox="0 0 128 128" style="enable-background:new 0 0 128 128;" xml:space="preserve">
<style type="text/css">
	.st0{fill:#E4A102;}
	.st1{fill:url(#XMLID_80_);}
	.st2{opacity:0.8;fill:#FFFFFF;}
</style>
<g id="Layer_4">
</g>
<g id="Layer_5">
	<g id="XMLID_7647_">
		<g id="XMLID_4328_">
			<path id="XMLID_4331_" class="st0" d="M124.1,58.5v11.2c0,16.6-10.1,33.2-25.5,42.1c-9.8,5.6-21.7,9-34.6,9
				c-16,0-30.5-5.1-41.3-13.4C11.1,98.4,3.9,83.8,3.9,69.7V58.5h2.2c18.4,10,87.8,17,115.8,0H124.1z"/>
			<linearGradient id="XMLID_80_" gradientUnits="userSpaceOnUse" x1="24.4962" y1="97.9913" x2="103.5043" y2="18.9832">
				<stop  offset="2.200000e-007" style="stop-color:#FFE844"/>
				<stop  offset="0.5" style="stop-color:#FFF3A1"/>
				<stop  offset="1" style="stop-color:#FFE844"/>
			</linearGradient>
			<path id="XMLID_4330_" class="st1" d="M124.1,58.5c0,17.3-10.1,32.6-25.5,41.9c-9.8,5.9-21.7,9.4-34.6,9.4
				c-16,0-30.5-5.3-41.3-14C11.1,86.4,3.9,73.2,3.9,58.5C3.9,30.2,30.8,7.3,64,7.3S124.1,30.2,124.1,58.5z"/>
			<path id="XMLID_4329_" class="st0" d="M113.2,77.9c1.3-4,3-9.1,3-13.4c0-28.3-21.9-48-55-48c-24.5,0-40.7,13.8-49.3,29.6
				C18.2,26.6,39.1,12.3,64,12.3c29.9,0,54.2,20.7,54.2,46.1C118.2,65.4,116.4,72,113.2,77.9z"/>
		</g>
		<g id="XMLID_4323_">
			<path id="XMLID_7547_" class="st0" d="M80.2,51.1l-0.4-0.4c-4.5-4-11.9-10.7-13.1-19c-0.1-0.7-0.7-1.3-1.5-1.3
				c-0.7,0-1.4,0.5-1.5,1.2c-1.8,10.2-7,14.5-11.2,18c-0.4,0.4-1.5,1.4-1.7,1.5c-6.2,5.4-7.5,10.4-7.5,13.7
				c0,11.3,8.3,18.3,21.6,18.3c12.9,0,20.9-9.6,20.9-18.4v0c0-0.4,0-0.7,0-1.1C85.9,60.2,85.3,55.7,80.2,51.1z M49,63.7
				c0-3.4,0.4-7.3,5.6-11.6c3.5-3,8.1-6.9,10.8-14.4c2.9,6.7,8.7,12,12.5,15.4l0.4,0.4c4.1,3.7,4.7,7.1,4.7,10.3
				c0,7.4-7.6,13.4-17,13.4C56.6,77.1,49,71.1,49,63.7z"/>
			<path id="XMLID_4324_" class="st2" d="M71.2,49.5c5.5,3.7,9.7,7.8,9.3,12.5c-0.4,4.7-5.1,1.1-6.2-3
				C73.3,54.9,71.2,49.5,71.2,49.5z"/>
		</g>
	</g>
</g>
<g id="Layer_6">
</g>
</svg>
