<?xml version="1.0" encoding="utf-8"?>
<!-- Generator: Adobe Illustrator 19.0.0, SVG Export Plug-In . SVG Version: 6.00 Build 0)  -->
<svg version="1.0" xmlns="http://www.w3.org/2000/svg" xmlns:xlink="http://www.w3.org/1999/xlink" x="0px" y="0px"
	 viewBox="0 0 128 128" style="enable-background:new 0 0 128 128;" xml:space="preserve">
<style type="text/css">
	.st0{fill:#E4A102;}
	.st1{fill:url(#XMLID_80_);}
</style>
<g id="Layer_4">
</g>
<g id="Layer_5">
	<g id="XMLID_7662_">
		<g id="XMLID_4340_">
			<path id="XMLID_4343_" class="st0" d="M124.1,58.5v11.2c0,16.6-10.1,33.2-25.5,42.1c-9.8,5.6-21.7,9-34.6,9
				c-16,0-30.5-5.1-41.3-13.4C11.1,98.4,3.9,83.8,3.9,69.7V58.5h2.2c18.4,10,87.8,17,115.8,0H124.1z"/>
			<linearGradient id="XMLID_80_" gradientUnits="userSpaceOnUse" x1="24.4961" y1="97.9915" x2="103.5043" y2="18.9833">
				<stop  offset="2.200000e-007" style="stop-color:#FFE844"/>
				<stop  offset="0.5" style="stop-color:#FFF3A1"/>
				<stop  offset="1" style="stop-color:#FFE844"/>
			</linearGradient>
			<path id="XMLID_4342_" class="st1" d="M124.1,58.5c0,17.3-10.1,32.6-25.5,41.9c-9.8,5.9-21.7,9.4-34.6,9.4
				c-16,0-30.5-5.3-41.3-14C11.1,86.4,3.9,73.2,3.9,58.5C3.9,30.2,30.8,7.3,64,7.3S124.1,30.2,124.1,58.5z"/>
			<path id="XMLID_4341_" class="st0" d="M113.2,77.9c1.3-4,3-9.1,3-13.4c0-28.3-21.9-48-55-48c-24.5,0-40.7,13.8-49.3,29.6
				C18.2,26.6,39.1,12.3,64,12.3c29.9,0,54.2,20.7,54.2,46.1C118.2,65.4,116.4,72,113.2,77.9z"/>
		</g>
		<g id="XMLID_7661_">
			<path id="XMLID_7623_" class="st0" d="M90.6,73.1c-5.6,2.5-12.5,1.1-16.7-3.5c-0.3-0.4-0.5-0.8-0.4-1.3c0.1-0.5,0.4-0.9,0.8-1.1
				c3.3-1.6,6.1-5.3,6.6-7.6c0.2-0.8,1-1.3,1.8-1.2c0.8,0.2,1.3,1,1.1,1.8c-0.6,2.9-3.3,6.4-6.4,8.5c3.4,2.6,8,3.3,11.9,1.5
				c4.7-2.1,7-7.1,6.3-13.5c-1.1-10.2-11.9-14.4-23.9-18.2c-9.6-3-18.9-8.1-22.2-9.9c-3.5,5.3-17.3,28-10.1,45.8
				c3.7,9.1,13.6,13.3,21.2,12.7c3.9-0.3,7.1-1.8,9.5-4.3c0,0,0,0,0,0c1.6-1.7,2.8-3.9,3.5-6.5c-1.5-1.6-3.1-3.3-4.6-5.1
				c-3.6,0.7-6.8,1-9.5,1c-5.5,0-8.9-1-9.1-1.1c-0.8-0.2-1.2-1.1-1-1.9c0.2-0.8,1.1-1.2,1.9-1c0.1,0,6.4,1.9,15.6,0.3
				c-2-2.6-3.9-5.5-5.7-8.5c-6.7-0.3-12.4-2.1-12.7-2.2c-0.8-0.3-1.2-1.1-1-1.9c0.3-0.8,1.1-1.2,1.9-1c0.1,0,4.5,1.5,10,2
				c-2.8-5.2-5.2-10.9-6.7-16.8c-0.2-0.8,0.3-1.6,1.1-1.8c0.8-0.2,1.6,0.3,1.8,1.1c2.2,8.5,6.1,16.2,10.4,22.8
				c3-2.5,5.8-6.7,5.8-10.5c0-0.8,0.7-1.5,1.5-1.5c0.8,0,1.5,0.7,1.5,1.5c-0.1,5-3.6,10-7.1,12.9c2.8,3.9,5.7,7.3,8.5,10.1
				c0.1,0.1,0.1,0.1,0.2,0.2c4.8,4.7,9.3,7.7,12.2,8.3c0.8,0.2,1.3,1,1.2,1.8c-0.1,0.7-0.8,1.2-1.5,1.2c-0.1,0-0.2,0-0.3,0
				c-3.3-0.7-7.5-3.4-12-7.5c-0.8,2.3-2,4.3-3.5,6c0,0,0,0.1-0.1,0.1c-2.5,3.1-5.8,5.2-9.7,6.3c-2.4,0.8-4.9,1.2-7.5,1.2
				c-1.2,0-2.5-0.1-3.7-0.3c-8.1-1.2-14.7-6.2-17.5-13.3c-6.3-15.8,0.4-31.7,6.1-41.3c2.7-4.8,5.2-8,5.8-8.7c0,0,0,0,0,0
				c1-1.6,1.7-2.6,1.9-2.8c0.4-0.6,1.3-0.8,2-0.4c0.1,0.1,11.5,6.8,22.8,10.3c12.9,4.1,24.6,8.7,26,20.7
				C99.4,64.3,96.4,70.5,90.6,73.1z"/>
		</g>
	</g>
</g>
<g id="Layer_6">
</g>
</svg>
